{"title":"Sahib Biwi Aur Gangster Returns (2013) Hindi HDCAM x264 - Exclus","uid":8234523,"size":735945352,"categoryP":"video","categoryS":"movies","magnet":"?xt=urn:btih:a755b1905271ceb301a1c865dda1798ba1d46083&amp;dn=Sahib+Biwi+Aur+Gangster+Returns+%282013%29+Hindi+HDCAM+x264+-+Exclus&amp;tr=udp%3A%2F%2Ftracker.openbittorrent.com%3A80&amp;tr=udp%3A%2F%2Fopen.demonii.com%3A1337&amp;tr=udp%3A%2F%2Ftracker.coppersurfer.tk%3A6969&amp;tr=udp%3A%2F%2Fexodus.desync.com%3A6969","seeders":0,"leechers":1,"uploader":"tykoon123","files":-1,"time":1362810215,"description":" &lt;a href=&quot;http://imgr.us/images/p5sdu1yp0mimki39hlx.jpg&quot; rel=&quot;nofollow&quot; target=&quot;_NEW&quot;&gt;http://imgr.us/images/p5sdu1yp0mimki39hlx.jpg&lt;/a&gt;\n\nFormat : Matroska\nFormat version : Version 4 / Version 2\nFile size : 702 MiB\nDuration : 1h 51mn\nOverall bit rate : 880 Kbps\nEncoded date : UTC 2013-03-08 12:28:41\nWriting application : mkvmerge v6.0.0 ('Coming Up For Air') built on Jan 20 2013 09:52:00\nWriting library : libebml v1.3.0 + libmatroska v1.4.0\n\n\n\nVideo\nID : 1\nFormat : AVC\nFormat/Info : Advanced Video Codec\nFormat profile : &lt;a class=&quot;__cf_email__&quot; href=&quot;/cdn-cgi/l/email-protection&quot; data-cfemail=&quot;763e1f111e363a445847&quot;&gt;[email&amp;#160;protected]&lt;/a&gt;&lt;script cf-hash='f9e31' type=&quot;text/javascript&quot;&gt;\n/* &lt;![CDATA[ */!function(){try{var t=&quot;currentScript&quot;in document?document.currentScript:function(){for(var t=document.getElementsByTagName(&quot;script&quot;),e=t.length;e--;)if(t[e].getAttribute(&quot;cf-hash&quot;))return t[e]}();if(t&amp;&amp;t.previousSibling){var e,r,n,i,c=t.previousSibling,a=c.getAttribute(&quot;data-cfemail&quot;);if(a){for(e=&quot;&quot;,r=parseInt(a.substr(0,2),16),n=2;a.length-n;n+=2)i=parseInt(a.substr(n,2),16)^r,e+=String.fromCharCode(i);e=document.createTextNode(e),c.parentNode.replaceChild(e,c)}}}catch(u){}}();/* ]]&gt; */&lt;/script&gt;\nFormat settings, CABAC : Yes\nFormat settings, ReFrames : 5 frames\nCodec ID : V_MPEG4/ISO/AVC\nDuration : 1h 51mn\nBit rate : 800 Kbps\nWidth : 608 pixels\nHeight : 272 pixels\nDisplay aspect ratio : 2.25:1\nFrame rate : 25.000 fps\nColor space : YUV\nChroma subsampling : 4:2:0\nBit depth : 8 bits\nScan type : Progressive\nBits/(Pixel*Frame) : 0.193\nStream size : 624 MiB (89%)\nWriting library : x264 core 129 r2245 bc13772\nLanguage : Hindi\n\n\n\nAudio\nID : 2\nFormat : MPEG Audio\nFormat version : Version 1\nFormat profile : Layer 3\nMode : Joint stereo\nMode extension : MS Stereo\nCodec ID : A_MPEG/L3\nCodec ID/Hint : MP3\nDuration : 1h 49mn\nBit rate mode : Variable\nBit rate : 80.0 Kbps\nChannel(s) : 2 channels\nSampling rate : 32.0 KHz\nCompression mode : Lossy\nStream size : 62.7 MiB (9%)\nWriting library : LAME3.99r\nEncoding settings : -m j -V 4 -q 2 -lowpass 13.5 --abr 80\n\nSCREENS: &lt;a href=&quot;\nhttp://www.shotpix.com/images/97446122893780071033.jpg&quot; rel=&quot;nofollow&quot; target=&quot;_NEW&quot;&gt;\nhttp://www.shotpix.com/images/97446122893780071033.jpg&lt;/a&gt; &lt;a href=&quot;\nhttp://www.shotpix.com/images/78214614187101177021.jpg&quot; rel=&quot;nofollow&quot; target=&quot;_NEW&quot;&gt;\nhttp://www.shotpix.com/images/78214614187101177021.jpg&lt;/a&gt; &lt;a href=&quot;\nhttp://www.shotpix.com/images/09250320176901900807.jpg&quot; rel=&quot;nofollow&quot; target=&quot;_NEW&quot;&gt;\nhttp://www.shotpix.com/images/09250320176901900807.jpg&lt;/a&gt; &lt;a href=&quot;\nhttp://www.shotpix.com/images/07178663691913981058.jpg&quot; rel=&quot;nofollow&quot; target=&quot;_NEW&quot;&gt;\nhttp://www.shotpix.com/images/07178663691913981058.jpg&lt;/a&gt; &lt;a href=&quot;\nhttp://www.shotpix.com/images/96434885607764609085.jpg&quot; rel=&quot;nofollow&quot; target=&quot;_NEW&quot;&gt;\nhttp://www.shotpix.com/images/96434885607764609085.jpg&lt;/a&gt; &lt;a href=&quot;\nhttp://www.shotpix.com/images/44616631693328645967.jpg&quot; rel=&quot;nofollow&quot; target=&quot;_NEW&quot;&gt;\nhttp://www.shotpix.com/images/44616631693328645967.jpg&lt;/a&gt;\n\n\n\n\n\n","torrent":{"xt":"urn:btih:a755b1905271ceb301a1c865dda1798ba1d46083","amp;dn":"Sahib+Biwi+Aur+Gangster+Returns+%282013%29+Hindi+HDCAM+x264+-+Exclus","amp;tr":["udp%3A%2F%2Ftracker.openbittorrent.com%3A80","udp%3A%2F%2Fopen.demonii.com%3A1337","udp%3A%2F%2Ftracker.coppersurfer.tk%3A6969","udp%3A%2F%2Fexodus.desync.com%3A6969"],"infoHash":"a755b1905271ceb301a1c865dda1798ba1d46083","infoHashBuffer":{"type":"Buffer","data":[167,85,177,144,82,113,206,179,1,161,200,101,221,161,121,139,161,212,96,131]},"announce":[],"urlList":[]}}